<?xml version="1.0" standalone="no"?>
<!DOCTYPE svg PUBLIC "-//W3C//DTD SVG 20010904//EN"
 "http://www.w3.org/TR/2001/REC-SVG-20010904/DTD/svg10.dtd">
<svg version="1.0" xmlns="http://www.w3.org/2000/svg"
 width="214.000000pt" height="214.000000pt" viewBox="0 0 214.000000 214.000000"
 preserveAspectRatio="xMidYMid meet">
<metadata>
Created by potrace 1.11, written by Peter Selinger 2001-2013
</metadata>
<g transform="translate(0.000000,214.000000) scale(0.100000,-0.100000)"
fill="#000000" stroke="none">
<path d="M437 1825 c-9 -8 -18 -15 -22 -15 -6 0 -19 -10 -50 -37 -7 -7 -16
-13 -20 -13 -3 0 -30 -18 -60 -40 -30 -22 -57 -40 -60 -40 -6 0 -23 -13 -56
-42 -11 -10 -19 -31 -19 -48 0 -30 98 -239 128 -272 8 -10 12 -18 8 -18 -4 0
4 -19 18 -43 13 -24 29 -54 36 -68 7 -13 17 -31 22 -39 4 -8 12 -24 17 -35 5
-11 21 -45 35 -75 14 -29 26 -56 26 -59 0 -4 -60 -6 -132 -6 -207 1 -202 7
-205 -246 -1 -177 0 -187 20 -213 12 -15 35 -29 51 -32 16 -3 33 -7 37 -10 4
-2 10 2 12 8 4 10 6 10 6 1 1 -7 7 -10 15 -7 12 4 15 -10 18 -71 2 -42 0 -79
-3 -81 -14 -8 11 -107 32 -125 26 -23 17 -21 112 -23 42 -1 77 2 77 7 0 5 10
5 23 1 29 -10 267 -12 273 -3 2 4 14 5 27 2 12 -3 83 -5 157 -4 74 0 146 1
160 1 24 -1 434 -1 455 -1 6 0 77 -1 160 -3 139 -3 195 4 195 25 0 4 5 20 11
36 11 25 13 47 10 102 -1 10 -12 34 -25 53 l-23 34 27 30 c19 22 32 29 45 24
34 -12 96 11 114 41 21 34 23 178 3 202 -10 12 -10 16 1 20 9 3 14 29 15 83 2
65 -1 85 -18 112 -11 17 -27 33 -35 33 -23 2 -29 4 -42 12 -6 4 -15 3 -18 -3
-5 -8 -11 -8 -20 0 -9 8 -15 8 -20 0 -3 -6 -10 -8 -15 -5 -4 2 -20 -5 -34 -16
-26 -21 -27 -21 -44 -2 -14 16 -30 19 -83 18 l-65 -1 56 110 c31 61 78 154
104 206 26 52 53 104 59 115 80 151 88 173 77 215 -6 22 -15 38 -19 36 -4 -3
-18 4 -29 15 -12 11 -22 17 -22 14 0 -3 -6 -1 -12 4 -42 35 -108 80 -108 74 0
-3 -10 3 -22 14 -13 11 -40 30 -60 42 -54 32 -80 22 -115 -47 -15 -32 -30 -59
-33 -62 -5 -5 -18 -29 -141 -272 -44 -87 -84 -158 -90 -158 -5 0 -9 33 -10 73
-2 175 -17 239 -65 293 -26 28 -114 76 -129 70 -7 -2 -16 -2 -19 1 -12 13 -83
4 -126 -14 -54 -24 -120 -98 -136 -153 -6 -22 -12 -85 -12 -142 0 -57 -1 -107
-2 -113 -1 -5 -2 -13 -1 -17 0 -3 -7 -5 -17 -3 -9 2 -24 4 -33 4 -9 1 -38 45
-73 114 -158 305 -211 403 -225 418 -25 26 -57 32 -74 14z"/>
</g>
</svg>
